<?xml version="1.0" standalone="no"?>
<!DOCTYPE svg PUBLIC "-//W3C//DTD SVG 20010904//EN"
 "http://www.w3.org/TR/2001/REC-SVG-20010904/DTD/svg10.dtd">
<svg version="1.0" xmlns="http://www.w3.org/2000/svg"
 width="300.000000pt" height="227.000000pt" viewBox="0 0 300.000000 227.000000"
 preserveAspectRatio="xMidYMid meet">
<metadata>
Created by potrace 1.10, written by Peter Selinger 2001-2011
</metadata>
<g transform="translate(0.000000,227.000000) scale(0.100000,-0.100000)"
fill="#000000" stroke="none">
<path d="M1520 2224 c-12 -27 -27 -61 -35 -76 -7 -15 -10 -30 -6 -32 10 -6 76
142 68 151 -4 3 -16 -16 -27 -43z"/>
<path d="M1010 2097 c-275 -82 -462 -318 -477 -602 -11 -212 86 -427 251 -554
31 -24 60 -41 64 -37 4 4 -1 12 -10 17 -75 42 -175 156 -223 254 -48 97 -66
174 -66 286 0 117 19 198 72 300 77 148 213 263 372 315 105 35 276 39 371 10
160 -48 321 -169 382 -288 8 -15 19 -28 25 -28 12 0 8 7 -48 87 -79 113 -224
210 -369 247 -93 24 -251 20 -344 -7z"/>
<path d="M2690 1663 c-21 -11 -42 -33 -54 -56 -16 -33 -17 -45 -7 -77 14 -47
45 -73 114 -96 61 -19 87 -40 87 -66 0 -72 -99 -98 -161 -42 -14 12 -18 11
-38 -10 l-22 -24 34 -21 c109 -67 247 -10 247 103 0 51 -38 91 -106 111 -58
17 -104 52 -104 80 0 9 11 27 25 40 30 30 82 33 116 6 24 -18 24 -18 47 4 l23
22 -28 18 c-40 27 -129 31 -173 8z m55 -13 c-11 -5 -27 -9 -35 -9 -9 0 -8 4 5
9 11 5 27 9 35 9 9 0 8 -4 -5 -9z m79 0 c14 -5 26 -15 26 -22 0 -10 -2 -10 -8
-1 -4 6 -23 16 -42 21 -19 6 -27 11 -18 11 9 1 28 -3 42 -9z m-138 -36 c-23
-23 -28 -52 -14 -81 13 -27 66 -64 81 -56 4 2 7 -1 7 -6 0 -6 8 -11 18 -11 63
0 102 -56 83 -119 -13 -46 -28 -60 -67 -65 -16 -2 -23 -1 -16 1 51 18 60 30
70 85 5 33 -32 71 -86 89 -21 7 -54 23 -74 36 -34 21 -38 28 -38 64 0 39 27
92 43 82 4 -2 1 -11 -7 -19z m9 -329 c22 -8 31 -14 20 -14 -21 0 -88 27 -70
28 6 0 28 -6 50 -14z"/>
<path d="M1151 1628 c-10 -24 -51 -117 -90 -207 -39 -89 -71 -165 -71 -168 0
-2 12 -3 26 -1 23 3 33 20 93 158 37 85 71 164 75 175 6 16 15 2 45 -67 20
-48 40 -90 44 -94 17 -17 3 -22 -51 -17 -55 5 -58 4 -70 -21 -7 -15 -12 -28
-12 -29 0 -1 35 -1 79 1 l78 3 24 -55 c20 -49 26 -56 51 -56 15 0 28 3 27 8 0
4 -40 97 -88 207 -80 183 -90 200 -115 203 -22 3 -29 -3 -45 -40z m59 20 c0
-2 14 -36 30 -77 37 -89 34 -106 -3 -21 -15 33 -31 60 -37 60 -5 0 -20 -10
-31 -21 -12 -12 -20 -18 -17 -13 2 5 10 24 17 42 7 17 19 32 27 32 8 0 14 -1
14 -2z m149 -358 c0 -8 -8 1 -18 21 -23 51 -40 69 -63 69 -20 0 -20 0 1 18 19
15 20 19 7 44 -8 15 -11 29 -8 32 7 7 81 -163 81 -184z m-269 125 c0 -8 -4
-15 -10 -15 -5 0 -7 7 -4 15 4 8 8 15 10 15 2 0 4 -7 4 -15z m-29 -62 c-12
-20 -14 -14 -5 12 4 9 9 14 11 11 3 -2 0 -13 -6 -23z m-18 -48 c-3 -9 -8 -14
-10 -11 -3 3 -2 9 2 15 9 16 15 13 8 -4z"/>
<path d="M1420 1645 c0 -24 2 -25 70 -25 l70 0 0 -185 0 -185 28 0 27 0 -3
185 -3 185 71 0 c68 0 70 1 70 25 l0 25 -165 0 -165 0 0 -25z m256 -2 c-32 -2
-65 -10 -72 -18 -11 -10 -14 -55 -16 -187 l-2 -173 -6 177 c-3 97 -9 182 -15
187 -5 5 -35 12 -65 14 -30 2 10 3 90 3 80 0 119 -1 86 -3z"/>
<path d="M1850 1460 l0 -210 125 0 125 0 0 31 0 31 -95 -4 -95 -3 0 183 0 182
-30 0 -30 0 0 -210z m59 -174 c13 -16 13 -17 -5 -14 -10 1 -21 8 -24 15 -3 7
-3 88 0 180 l5 168 5 -166 c4 -124 9 -170 19 -183z"/>
<path d="M2330 1661 c0 -6 -36 -92 -79 -191 -101 -229 -98 -220 -69 -220 27 0
26 -3 113 200 57 134 75 167 75 141 0 -7 18 -53 39 -101 l39 -88 -57 5 c-54 5
-57 4 -69 -21 -7 -15 -12 -28 -12 -29 0 -1 35 -1 79 1 l78 3 23 -55 c20 -50
26 -56 51 -56 16 0 29 1 29 3 0 1 -40 94 -89 207 -87 198 -91 205 -120 208
-17 2 -31 -1 -31 -7z m62 -52 c20 -41 15 -50 -10 -19 -23 28 -36 21 -62 -33
-10 -23 -19 -36 -20 -30 0 23 53 124 64 120 6 -2 18 -19 28 -38z m129 -291
c23 -44 5 -37 -19 7 -19 34 -34 51 -50 53 -22 3 -22 4 -6 17 17 12 17 16 -9
82 -44 112 -31 97 24 -27 28 -63 55 -123 60 -132z m-271 72 c0 -5 -5 -10 -11
-10 -5 0 -7 5 -4 10 3 6 8 10 11 10 2 0 4 -4 4 -10z"/>
<path d="M1739 1113 c-39 -64 -120 -144 -198 -195 -40 -26 -80 -48 -87 -48 -8
0 -14 -4 -14 -10 0 -15 7 -13 74 22 65 35 217 178 249 236 25 45 4 40 -24 -5z"/>
<path d="M1017 1094 c-20 -19 -37 -42 -37 -52 0 -9 -27 -55 -60 -102 -50 -70
-60 -90 -55 -114 3 -16 5 -35 5 -43 0 -8 17 -21 38 -30 20 -8 51 -21 69 -28
l32 -14 -43 -96 c-27 -59 -60 -114 -83 -139 -22 -22 -46 -57 -53 -76 -8 -19
-43 -65 -79 -102 -61 -65 -66 -68 -111 -68 -38 0 -68 -11 -161 -61 -63 -34
-147 -82 -188 -108 l-74 -46 54 -3 c43 -3 56 1 69 16 11 15 61 30 195 59 l180
40 144 90 145 89 25 77 c25 72 31 81 117 161 54 51 97 100 109 125 17 39 20
41 62 41 37 0 45 4 55 25 6 14 15 25 20 25 9 0 10 49 2 103 l-7 37 -51 0 c-59
-1 -110 -33 -104 -67 6 -37 -19 -53 -86 -53 -54 0 -188 28 -202 43 -3 3 23 71
59 151 36 80 62 148 58 150 -3 2 -23 -11 -44 -30z m-16 -77 c-10 -9 -11 -8 -5
6 3 10 9 15 12 12 3 -3 0 -11 -7 -18z m-27 -61 c-3 -9 -10 -13 -15 -10 -5 3
-3 11 4 19 15 16 19 13 11 -9z m-38 -84 c-16 -45 -16 -48 3 -63 26 -21 148
-49 217 -49 58 0 79 14 96 62 6 15 14 25 19 22 5 -3 6 1 3 9 -3 10 5 16 27 21
62 12 67 9 74 -38 11 -73 -21 -113 -86 -107 -16 2 -59 -47 -59 -67 0 -9 -57
-66 -157 -159 -22 -20 -42 -55 -60 -109 -30 -85 -29 -84 -194 -178 -20 -12
-56 -33 -80 -48 -31 -19 -95 -38 -214 -64 -93 -20 -177 -43 -186 -50 -8 -8
-20 -14 -26 -14 -6 0 -14 -5 -16 -10 -3 -6 -4 -5 -3 2 1 7 20 22 42 33 22 11
53 29 69 39 71 47 183 97 231 102 45 6 59 14 118 68 42 38 75 80 90 111 13 28
41 69 63 93 26 27 54 75 78 134 47 112 47 113 -52 154 -24 9 -43 24 -44 33 0
9 -2 24 -4 33 -4 20 57 117 63 99 2 -6 -4 -33 -12 -59z"/>
<path d="M1710 875 c0 -38 4 -55 13 -55 8 0 12 13 10 43 l-2 42 13 -40 c7 -22
19 -40 27 -40 7 0 19 18 25 40 l12 40 1 -42 c1 -62 19 -53 23 12 3 51 1 55
-19 55 -18 0 -24 -8 -31 -42 l-9 -43 -12 43 c-9 31 -17 42 -31 42 -17 0 -20
-7 -20 -55z"/>
<path d="M1919 913 c-13 -15 -12 -15 6 -6 11 6 26 8 34 5 8 -3 11 0 7 7 -10
16 -31 14 -47 -6z"/>
<path d="M2080 920 c0 -5 7 -10 15 -10 8 0 15 5 15 10 0 6 -7 10 -15 10 -8 0
-15 -4 -15 -10z"/>
<path d="M2373 910 c3 -11 1 -17 -5 -14 -5 3 -20 3 -34 0 -18 -5 -24 -13 -24
-35 0 -31 14 -41 61 -41 29 0 29 1 29 55 0 44 -3 55 -16 55 -11 0 -15 -6 -11
-20z m-3 -50 c0 -21 -15 -27 -25 -10 -7 12 2 30 16 30 5 0 9 -9 9 -20z"/>
<path d="M2410 915 c0 -8 7 -15 15 -15 8 0 15 7 15 15 0 8 -7 15 -15 15 -8 0
-15 -7 -15 -15z"/>
<path d="M2466 914 c-34 -33 -9 -94 38 -94 26 0 40 14 48 47 12 49 -50 83 -86
47z m59 -39 c0 -23 -4 -30 -20 -30 -21 0 -31 25 -21 51 11 28 41 12 41 -21z"/>
<path d="M1971 904 c-11 -13 -11 -18 -2 -24 7 -4 12 -13 11 -21 -4 -29 1 -39
20 -39 11 0 20 5 20 10 0 6 -4 10 -10 10 -14 0 -12 38 2 42 9 3 8 9 -4 21 -20
20 -19 20 -37 1z"/>
<path d="M1850 891 c0 -5 10 -12 23 -14 l22 -4 -22 -2 c-13 0 -23 -8 -23 -16
0 -8 0 -18 0 -22 0 -5 15 -9 33 -10 33 -2 34 -2 28 35 -5 31 -11 38 -34 40
-15 2 -27 -1 -27 -7z m40 -41 c0 -5 -7 -10 -16 -10 -8 0 -12 5 -9 10 3 6 10
10 16 10 5 0 9 -4 9 -10z"/>
<path d="M1930 860 c0 -26 5 -40 13 -40 9 0 11 12 9 40 -2 22 -8 40 -13 40 -5
0 -9 -18 -9 -40z"/>
<path d="M2030 859 c0 -22 5 -39 10 -39 6 0 10 11 10 25 0 14 7 28 15 31 23 9
18 22 -10 22 -22 0 -25 -5 -25 -39z"/>
<path d="M2088 860 c-2 -28 0 -40 9 -40 8 0 13 14 13 40 0 22 -4 40 -9 40 -5
0 -11 -18 -13 -40z"/>
<path d="M2124 888 c-4 -6 3 -19 16 -30 22 -18 22 -18 1 -18 -12 0 -21 -4 -21
-10 0 -5 11 -10 25 -10 33 0 45 28 20 46 -17 13 -17 14 -2 14 9 0 17 5 17 10
0 14 -47 13 -56 -2z"/>
<path d="M2201 886 c-7 -8 -11 -25 -9 -38 2 -18 9 -23 32 -23 16 0 31 5 33 12
3 7 -3 10 -15 6 -11 -2 -23 0 -26 6 -5 7 3 11 19 11 20 0 26 4 23 18 -4 22
-41 27 -57 8z m36 -12 c-3 -3 -12 -4 -19 -1 -8 3 -5 6 6 6 11 1 17 -2 13 -5z"/>
<path d="M2568 875 c-8 -19 -8 -28 2 -40 16 -19 60 -20 60 -1 0 9 -7 12 -20 9
-11 -3 -20 0 -20 6 0 6 11 11 25 11 23 0 24 2 15 20 -15 28 -48 25 -62 -5z"/>
<path d="M2648 860 c4 -38 6 -40 38 -40 33 0 34 1 34 40 0 29 -4 40 -15 40
-10 0 -15 -10 -15 -30 0 -16 -4 -30 -10 -30 -5 0 -10 14 -10 30 0 18 -5 30
-13 30 -9 0 -11 -12 -9 -40z"/>
<path d="M2730 891 c0 -4 5 -22 11 -40 14 -41 40 -37 53 7 12 43 26 41 19 -3
-4 -28 -2 -35 11 -35 11 0 16 9 16 30 0 20 5 30 15 30 8 0 15 5 15 10 0 6 -20
10 -44 10 -40 0 -44 -2 -54 -32 l-10 -33 -1 33 c-1 21 -6 32 -16 32 -8 0 -15
-4 -15 -9z"/>
<path d="M2881 886 c-7 -8 -11 -25 -9 -38 2 -18 9 -23 32 -23 16 0 31 5 33 12
3 7 -3 10 -15 6 -11 -2 -23 0 -26 6 -5 7 3 11 19 11 20 0 26 4 23 18 -4 22
-41 27 -57 8z m36 -12 c-3 -3 -12 -4 -19 -1 -8 3 -5 6 6 6 11 1 17 -2 13 -5z"/>
<path d="M980 841 c0 -21 193 -51 204 -32 5 7 -8 11 -41 11 -26 0 -73 7 -103
15 -66 18 -60 17 -60 6z"/>
<path d="M841 666 c-17 -39 -30 -75 -28 -80 2 -6 18 20 36 58 17 39 30 75 28
80 -2 6 -18 -20 -36 -58z"/>
<path d="M1056 384 l-25 -76 84 7 83 7 -13 -38 c-7 -22 -29 -92 -48 -157 l-35
-117 96 0 97 1 -50 26 c-27 14 -51 27 -53 28 -1 1 31 76 73 165 l75 163 -25
34 -26 33 -104 0 -103 0 -26 -76z m235 40 c11 -9 19 -25 19 -34 0 -9 -31 -83
-69 -165 -53 -114 -67 -154 -60 -167 5 -10 14 -18 19 -18 6 0 10 -4 10 -10 0
-9 -65 -8 -74 1 -3 3 13 67 35 142 23 76 38 145 35 153 -5 12 -20 14 -75 11
l-68 -4 7 31 c15 69 21 73 116 75 69 2 90 -1 105 -15z"/>
<path d="M80 10 l-85 -6 92 -2 c53 -1 94 2 98 8 3 6 0 9 -7 8 -7 -1 -51 -5
-98 -8z"/>
<path d="M710 10 l-355 -5 358 -3 c233 -1 357 1 357 8 0 6 -1 9 -2 8 -2 -2
-163 -5 -358 -8z"/>
<path d="M1333 8 c16 -10 367 -10 367 0 0 4 -85 7 -189 7 -104 0 -184 -3 -178
-7z"/>
</g>
</svg>
